<svg width="98" height="30" viewBox="0 0 98 30" fill="none" xmlns="http://www.w3.org/2000/svg">
<path d="M28 8.70905L26.7593 12.9708L25.9672 12.1805L21.7839 16.1319L18.7806 18.9683L16.3251 21.2874L14.0129 18.9683L12.9229 17.8747L11.5739 16.5208L11.1695 16.1158L8.95471 13.8931L8.10371 14.7154L7.81883 14.9902L6.46975 16.296L5.11698 17.6036L3.72379 18.9505L3.70539 18.9683L1.71118 20.8949L0 22.5504L2.72392 18.9683L6.46975 14.0393L7.81883 12.2661L8.98595 10.7302L11.5739 13.3276L12.6803 14.4389L12.9229 14.6816L16.3747 18.1423L16.6798 17.8534L18.0289 16.5796L18.6281 16.0141L20.3723 14.3658L21.7839 13.0332L24.3718 10.5892L23.5778 9.79899L28 8.70905Z" fill="#44CC40"/>
<path d="M6.46975 8.70905V14.0393L2.72392 18.9683H2.71289V8.70905H6.46975Z" fill="#8B198F"/>
<path d="M27.1545 16.0142C27.1545 23.726 20.6921 30 12.7446 30C8.69002 30 4.91844 28.3463 2.25154 25.5991C1.72587 25.0586 1.24431 24.477 0.810547 23.8562L2.46658 22.2561L5.12983 19.6855L5.87054 18.9683L6.46973 18.3903L7.81881 17.0845L8.11656 16.7973L8.82052 16.1159L8.93446 16.0035L8.9363 16.0052L8.99878 15.9446L11.5738 18.5277L12.6931 19.6516L16.3857 23.3568L18.639 21.2268L20.3851 19.5802L21.0321 18.9684L21.7838 18.2584L24.3827 15.8019L16.3378 26.5018L11.1804 21.3303L8.96566 19.1075L8.11652 19.9281L5.12979 22.8162L3.87444 24.0311C6.11864 26.3698 9.31122 27.7791 12.7446 27.7791C19.4294 27.7791 24.8662 22.5023 24.8662 16.0142H27.1545V16.0142Z" fill="#00B7FF"/>
<path d="M11.5739 5.60332V13.3276L8.98597 10.7302L7.81885 12.2662V5.60332H11.5739Z" fill="#8B198F"/>
<path d="M16.6798 3.08618V17.8534L16.3747 18.1424L12.923 14.6816V3.08618H16.6798Z" fill="#8B198F"/>
<path d="M21.7839 0V13.0333L20.3724 14.3658L18.6281 16.0142L18.0289 16.5797V0H21.7839Z" fill="#8B198F"/>
<path d="M40.0273 23.2344C39.1758 23.2344 38.3906 23.0156 37.6719 22.5781C36.9609 22.1406 36.3906 21.5586 35.9609 20.832C35.5391 20.0977 35.3281 19.293 35.3281 18.418V17.3164C35.3281 17.2305 35.3672 17.1875 35.4453 17.1875H38.1406C38.2031 17.1875 38.2344 17.2305 38.2344 17.3164V18.418C38.2344 18.9414 38.4102 19.3945 38.7617 19.7773C39.1133 20.1523 39.5352 20.3398 40.0273 20.3398C40.5273 20.3398 40.9531 20.1484 41.3047 19.7656C41.6562 19.375 41.832 18.9258 41.832 18.418C41.832 17.832 41.4492 17.3203 40.6836 16.8828C40.5586 16.8047 40.3945 16.7109 40.1914 16.6016C39.9961 16.4844 39.7617 16.3516 39.4883 16.2031C39.2148 16.0547 38.9492 15.9102 38.6914 15.7695C38.4336 15.6211 38.1836 15.4805 37.9414 15.3477C37.0664 14.832 36.4141 14.1875 35.9844 13.4141C35.5625 12.6328 35.3516 11.7578 35.3516 10.7891C35.3516 9.89844 35.5703 9.09375 36.0078 8.375C36.4453 7.66406 37.0156 7.10156 37.7188 6.6875C38.4297 6.26562 39.1992 6.05469 40.0273 6.05469C40.8789 6.05469 41.6602 6.26562 42.3711 6.6875C43.082 7.11719 43.6484 7.6875 44.0703 8.39844C44.5 9.10938 44.7148 9.90625 44.7148 10.7891V12.7578C44.7148 12.8203 44.6836 12.8516 44.6211 12.8516H41.9258C41.8633 12.8516 41.832 12.8203 41.832 12.7578L41.8086 10.7891C41.8086 10.2266 41.6328 9.76953 41.2812 9.41797C40.9297 9.06641 40.5117 8.89062 40.0273 8.89062C39.5352 8.89062 39.1133 9.07812 38.7617 9.45312C38.4102 9.82812 38.2344 10.2734 38.2344 10.7891C38.2344 11.3125 38.3438 11.75 38.5625 12.1016C38.7891 12.4531 39.1992 12.7891 39.793 13.1094C39.8555 13.1406 40 13.2188 40.2266 13.3438C40.4531 13.4688 40.7031 13.6094 40.9766 13.7656C41.2578 13.9141 41.5117 14.0508 41.7383 14.1758C41.9648 14.293 42.1016 14.3633 42.1484 14.3867C42.9453 14.832 43.5742 15.3789 44.0352 16.0273C44.5039 16.6758 44.7383 17.4727 44.7383 18.418C44.7383 19.332 44.5273 20.1523 44.1055 20.8789C43.6758 21.6055 43.1055 22.1797 42.3945 22.6016C41.6836 23.0234 40.8945 23.2344 40.0273 23.2344ZM51.2834 23H48.5764C48.5061 23 48.4709 22.9609 48.4709 22.8828V9.19531H45.3538C45.2756 9.19531 45.2366 9.15625 45.2366 9.07812L45.26 6.39453C45.26 6.33203 45.2913 6.30078 45.3538 6.30078H54.4709C54.5569 6.30078 54.5998 6.33203 54.5998 6.39453V9.07812C54.5998 9.15625 54.5686 9.19531 54.5061 9.19531H51.3538L51.3772 22.8828C51.3772 22.9609 51.3459 23 51.2834 23ZM59.9731 23.2344C59.1216 23.2344 58.3364 23.0156 57.6177 22.5781C56.9067 22.1406 56.3325 21.5586 55.895 20.832C55.4653 20.0977 55.2505 19.293 55.2505 18.418L55.2739 10.8125C55.2739 9.92188 55.4888 9.12109 55.9184 8.41016C56.3403 7.69141 56.9106 7.11719 57.6294 6.6875C58.3481 6.25 59.1294 6.03125 59.9731 6.03125C60.8481 6.03125 61.6333 6.24609 62.3286 6.67578C63.0317 7.10547 63.5942 7.68359 64.0161 8.41016C64.4458 9.12891 64.6606 9.92969 64.6606 10.8125L64.6841 18.418C64.6841 19.293 64.4731 20.0938 64.0513 20.8203C63.6216 21.5547 63.0513 22.1406 62.3403 22.5781C61.6294 23.0156 60.8403 23.2344 59.9731 23.2344ZM59.9731 20.3398C60.4575 20.3398 60.8794 20.1445 61.2388 19.7539C61.5981 19.3555 61.7778 18.9102 61.7778 18.418L61.7544 10.8125C61.7544 10.2812 61.5864 9.83203 61.2505 9.46484C60.9145 9.09766 60.4888 8.91406 59.9731 8.91406C59.4809 8.91406 59.0591 9.09375 58.7075 9.45312C58.3559 9.8125 58.1802 10.2656 58.1802 10.8125V18.418C58.1802 18.9414 58.3559 19.3945 58.7075 19.7773C59.0591 20.1523 59.4809 20.3398 59.9731 20.3398ZM68.8738 23H66.4714C66.3464 23 66.2839 22.9453 66.2839 22.8359L66.2605 6.48828C66.2605 6.36328 66.323 6.30078 66.448 6.30078H68.6159L72.6706 15.7578L72.5534 6.48828C72.5534 6.36328 72.6238 6.30078 72.7644 6.30078H75.1433C75.237 6.30078 75.2839 6.36328 75.2839 6.48828L75.3073 22.8594C75.3073 22.9531 75.2683 23 75.1902 23H73.0808L68.9206 14.1641L69.0964 22.8125C69.0964 22.9375 69.0222 23 68.8738 23ZM79.9658 23H77.247C77.1845 23 77.1533 22.9609 77.1533 22.8828L77.2002 6.41797C77.2002 6.33984 77.2314 6.30078 77.2939 6.30078H79.9892C80.0517 6.30078 80.083 6.33984 80.083 6.41797V12.1016L83.8447 6.39453C83.9072 6.33203 83.9658 6.30078 84.0205 6.30078H86.7744C86.8447 6.30078 86.8603 6.33203 86.8213 6.39453L82.6728 13.0156L87.3252 22.9062C87.3642 22.9688 87.3252 23 87.208 23H84.2783C84.2002 23 84.1533 22.9688 84.1377 22.9062L80.8916 15.8516L80.0595 17.1641V22.8828C80.0595 22.9609 80.0283 23 79.9658 23ZM92.2414 23.2344C91.3898 23.2344 90.6047 23.0156 89.8859 22.5781C89.175 22.1406 88.6047 21.5586 88.175 20.832C87.7531 20.0977 87.5422 19.293 87.5422 18.418V17.3164C87.5422 17.2305 87.5812 17.1875 87.6594 17.1875H90.3547C90.4172 17.1875 90.4484 17.2305 90.4484 17.3164V18.418C90.4484 18.9414 90.6242 19.3945 90.9758 19.7773C91.3273 20.1523 91.7492 20.3398 92.2414 20.3398C92.7414 20.3398 93.1672 20.1484 93.5187 19.7656C93.8703 19.375 94.0461 18.9258 94.0461 18.418C94.0461 17.832 93.6633 17.3203 92.8977 16.8828C92.7727 16.8047 92.6086 16.7109 92.4055 16.6016C92.2102 16.4844 91.9758 16.3516 91.7023 16.2031C91.4289 16.0547 91.1633 15.9102 90.9055 15.7695C90.6477 15.6211 90.3977 15.4805 90.1555 15.3477C89.2805 14.832 88.6281 14.1875 88.1984 13.4141C87.7766 12.6328 87.5656 11.7578 87.5656 10.7891C87.5656 9.89844 87.7844 9.09375 88.2219 8.375C88.6594 7.66406 89.2297 7.10156 89.9328 6.6875C90.6437 6.26562 91.4133 6.05469 92.2414 6.05469C93.093 6.05469 93.8742 6.26562 94.5852 6.6875C95.2961 7.11719 95.8625 7.6875 96.2844 8.39844C96.7141 9.10938 96.9289 9.90625 96.9289 10.7891V12.7578C96.9289 12.8203 96.8977 12.8516 96.8352 12.8516H94.1398C94.0773 12.8516 94.0461 12.8203 94.0461 12.7578L94.0227 10.7891C94.0227 10.2266 93.8469 9.76953 93.4953 9.41797C93.1437 9.06641 92.7258 8.89062 92.2414 8.89062C91.7492 8.89062 91.3273 9.07812 90.9758 9.45312C90.6242 9.82812 90.4484 10.2734 90.4484 10.7891C90.4484 11.3125 90.5578 11.75 90.7766 12.1016C91.0031 12.4531 91.4133 12.7891 92.007 13.1094C92.0695 13.1406 92.2141 13.2188 92.4406 13.3438C92.6672 13.4688 92.9172 13.6094 93.1906 13.7656C93.4719 13.9141 93.7258 14.0508 93.9523 14.1758C94.1789 14.293 94.3156 14.3633 94.3625 14.3867C95.1594 14.832 95.7883 15.3789 96.2492 16.0273C96.718 16.6758 96.9523 17.4727 96.9523 18.418C96.9523 19.332 96.7414 20.1523 96.3195 20.8789C95.8898 21.6055 95.3195 22.1797 94.6086 22.6016C93.8977 23.0234 93.1086 23.2344 92.2414 23.2344Z" fill="white"/>
</svg>
